<svg width="131" height="29" viewBox="0 0 131 29" fill="none" xmlns="http://www.w3.org/2000/svg">
<path d="M0.336 0.599998H6C9.904 0.599998 11.856 2.584 11.856 6.552C11.856 8.62133 11.2907 10.2427 10.16 11.416C9.05067 12.568 7.46133 13.144 5.392 13.144H3.152V23H0.336V0.599998ZM5.2 11.032C6.416 11.032 7.35467 10.616 8.016 9.784C8.69867 8.952 9.04 7.87467 9.04 6.552C9.04 5.29333 8.70933 4.344 8.048 3.704C7.408 3.04267 6.45867 2.712 5.2 2.712H3.152V11.032H5.2ZM17.812 23C17.044 23 16.3293 22.808 15.668 22.424C15.028 22.04 14.516 21.5173 14.132 20.856C13.7693 20.1947 13.588 19.448 13.588 18.616V16.952C13.588 15.9493 13.8333 15.1067 14.324 14.424C14.836 13.7413 15.4653 13.2613 16.212 12.984L20.18 11.512V10.008C20.18 9.496 20.02 9.08 19.7 8.76C19.4013 8.41867 19.0067 8.248 18.516 8.248H14.9V6.36H18.74C19.9133 6.36 20.8413 6.712 21.524 7.416C22.228 8.09867 22.58 9.03733 22.58 10.232V23H17.812ZM20.18 21.048V13.528L17.364 14.584C16.8093 14.7973 16.4147 15.0853 16.18 15.448C15.9667 15.8107 15.86 16.3867 15.86 17.176V18.968C15.86 19.544 16.0733 20.0347 16.5 20.44C16.9267 20.8453 17.4387 21.048 18.036 21.048H20.18ZM26.1075 6.36H31.2915C32.4648 6.36 33.4568 6.744 34.2675 7.512C35.0995 8.28 35.5155 9.24 35.5155 10.392V19C35.5155 20.152 35.1102 21.112 34.2995 21.88C33.4888 22.6267 32.4968 23 31.3235 23H28.6675V28.12H26.1075V6.36ZM30.7795 21.112C31.3768 21.112 31.8888 20.9093 32.3155 20.504C32.7422 20.0987 32.9555 19.5973 32.9555 19V10.392C32.9555 9.79467 32.7422 9.29333 32.3155 8.888C31.8888 8.48267 31.3768 8.28 30.7795 8.28H28.6675V21.112H30.7795ZM41.873 23C40.6997 23 39.761 22.648 39.057 21.944C38.3743 21.24 38.033 20.2907 38.033 19.096V10.584C38.033 9.19733 38.417 8.10933 39.185 7.32C39.953 6.53067 41.0943 6.136 42.609 6.136C44.1237 6.136 45.2543 6.53067 46.001 7.32C46.769 8.10933 47.153 9.19733 47.153 10.584V12.056C47.153 12.952 46.897 13.6347 46.385 14.104C45.873 14.552 45.201 14.8933 44.369 15.128L40.593 16.184V19.32C40.593 19.832 40.7423 20.2587 41.041 20.6C41.361 20.92 41.7663 21.08 42.257 21.08H45.713V23H41.873ZM42.545 13.624C43.249 13.432 43.7183 13.2933 43.953 13.208C44.209 13.1013 44.3797 12.952 44.465 12.76C44.5503 12.568 44.593 12.248 44.593 11.8V10.04C44.593 9.35733 44.4117 8.856 44.049 8.536C43.7077 8.216 43.2277 8.056 42.609 8.056C42.0117 8.056 41.521 8.22667 41.137 8.568C40.7743 8.90933 40.593 9.4 40.593 10.04V14.168L42.545 13.624ZM49.7013 6.36H51.6853L51.9733 7.544L52.7733 7.16C53.4559 6.81867 54.0213 6.56267 54.4693 6.392C54.9386 6.22133 55.4079 6.136 55.8773 6.136V8.024C55.5999 8.024 55.2266 8.10933 54.7573 8.28C54.2879 8.42933 53.4559 8.792 52.2613 9.368V23H49.7013V6.36ZM58.2958 23V0.599998H60.8558V23H58.2958ZM67.998 23C66.8247 23 65.886 22.648 65.182 21.944C64.4993 21.24 64.158 20.2907 64.158 19.096V10.584C64.158 9.19733 64.542 8.10933 65.31 7.32C66.078 6.53067 67.2193 6.136 68.734 6.136C70.2487 6.136 71.3793 6.53067 72.126 7.32C72.894 8.10933 73.278 9.19733 73.278 10.584V12.056C73.278 12.952 73.022 13.6347 72.51 14.104C71.998 14.552 71.326 14.8933 70.494 15.128L66.718 16.184V19.32C66.718 19.832 66.8673 20.2587 67.166 20.6C67.486 20.92 67.8913 21.08 68.382 21.08H71.838V23H67.998ZM68.67 13.624C69.374 13.432 69.8433 13.2933 70.078 13.208C70.334 13.1013 70.5047 12.952 70.59 12.76C70.6753 12.568 70.718 12.248 70.718 11.8V10.04C70.718 9.35733 70.5367 8.856 70.174 8.536C69.8327 8.216 69.3527 8.056 68.734 8.056C68.1367 8.056 67.646 8.22667 67.262 8.568C66.8993 8.90933 66.718 9.4 66.718 10.04V14.168L68.67 13.624ZM74.8663 21.08H77.5863C78.5036 21.08 79.1649 20.8347 79.5703 20.344C79.9969 19.832 80.2103 19.1707 80.2103 18.36C80.2103 17.72 80.0183 17.176 79.6343 16.728C79.2503 16.28 78.6743 15.7573 77.9062 15.16C77.2449 14.6267 76.7116 14.168 76.3063 13.784C75.9223 13.3787 75.5809 12.888 75.2823 12.312C75.0049 11.7147 74.8663 11.032 74.8663 10.264C74.8663 9.13333 75.2396 8.20533 75.9863 7.48C76.7543 6.73333 77.7783 6.36 79.0583 6.36H81.8423V8.28H79.5383C78.0236 8.28 77.2663 8.99467 77.2663 10.424C77.2663 10.9787 77.4369 11.4587 77.7783 11.864C78.1196 12.2693 78.6529 12.7493 79.3783 13.304C80.0396 13.816 80.5836 14.2853 81.0103 14.712C81.4369 15.1173 81.7996 15.64 82.0983 16.28C82.3969 16.8987 82.5463 17.6347 82.5463 18.488C82.5463 20.0027 82.1409 21.1333 81.3303 21.88C80.5409 22.6267 79.4209 23 77.9703 23H74.8663V21.08ZM84.46 21.08H87.18C88.0973 21.08 88.7587 20.8347 89.164 20.344C89.5907 19.832 89.804 19.1707 89.804 18.36C89.804 17.72 89.612 17.176 89.228 16.728C88.844 16.28 88.268 15.7573 87.5 15.16C86.8387 14.6267 86.3053 14.168 85.9 13.784C85.516 13.3787 85.1747 12.888 84.876 12.312C84.5987 11.7147 84.46 11.032 84.46 10.264C84.46 9.13333 84.8333 8.20533 85.58 7.48C86.348 6.73333 87.372 6.36 88.652 6.36H91.436V8.28H89.132C87.6173 8.28 86.86 8.99467 86.86 10.424C86.86 10.9787 87.0307 11.4587 87.372 11.864C87.7133 12.2693 88.2467 12.7493 88.972 13.304C89.6333 13.816 90.1773 14.2853 90.604 14.712C91.0307 15.1173 91.3933 15.64 91.692 16.28C91.9907 16.8987 92.14 17.6347 92.14 18.488C92.14 20.0027 91.7347 21.1333 90.924 21.88C90.1347 22.6267 89.0147 23 87.564 23H84.46V21.08ZM95.4298 0.599998H101.094C104.998 0.599998 106.95 2.584 106.95 6.552C106.95 8.62133 106.384 10.2427 105.254 11.416C104.144 12.568 102.555 13.144 100.486 13.144H98.2458V23H95.4298V0.599998ZM100.294 11.032C101.51 11.032 102.448 10.616 103.11 9.784C103.792 8.952 104.134 7.87467 104.134 6.552C104.134 5.29333 103.803 4.344 103.142 3.704C102.502 3.04267 101.552 2.712 100.294 2.712H98.2458V11.032H100.294ZM112.906 23C112.138 23 111.423 22.808 110.762 22.424C110.122 22.04 109.61 21.5173 109.226 20.856C108.863 20.1947 108.682 19.448 108.682 18.616V16.952C108.682 15.9493 108.927 15.1067 109.418 14.424C109.93 13.7413 110.559 13.2613 111.306 12.984L115.274 11.512V10.008C115.274 9.496 115.114 9.08 114.794 8.76C114.495 8.41867 114.1 8.248 113.61 8.248H109.994V6.36H113.834C115.007 6.36 115.935 6.712 116.618 7.416C117.322 8.09867 117.674 9.03733 117.674 10.232V23H112.906ZM115.274 21.048V13.528L112.458 14.584C111.903 14.7973 111.508 15.0853 111.274 15.448C111.06 15.8107 110.954 16.3867 110.954 17.176V18.968C110.954 19.544 111.167 20.0347 111.594 20.44C112.02 20.8453 112.532 21.048 113.13 21.048H115.274ZM121.105 26.2H122.097C122.673 26.2 123.196 25.9227 123.665 25.368C124.135 24.8347 124.369 24.0347 124.369 22.968L119.921 6.36H122.577L125.361 19.864L127.601 6.36H130.129L126.225 24.92C125.777 27.0533 124.54 28.12 122.513 28.12H121.105V26.2Z" fill="#DDF3F0"/>
</svg>
